<svg width="32" height="32" viewBox="0 0 32 32" fill="none" xmlns="http://www.w3.org/2000/svg">
<rect x="2" y="14" width="4" height="4" rx="1" fill="#E55E1A"/>
<rect x="8" y="14" width="4" height="4" rx="1" fill="#E55E1A"/>
<rect x="14" y="14" width="4" height="4" rx="1" fill="#E55E1A"/>
<rect x="20" y="14" width="4" height="4" rx="1" fill="#E55E1A"/>
<rect x="26" y="14" width="4" height="4" rx="1" fill="#E55E1A"/>
<rect x="2" y="8" width="4" height="4" rx="1" fill="#E55E1A"/>
<rect x="8" y="8" width="4" height="4" rx="1" fill="#E55E1A"/>
<rect x="14" y="8" width="4" height="4" rx="1" fill="#E55E1A"/>
<rect x="20" y="8" width="4" height="4" rx="1" fill="#E55E1A"/>
<rect x="26" y="8" width="4" height="4" rx="1" fill="#E55E1A"/>
<rect x="2" y="20" width="4" height="4" rx="1" fill="#E55E1A"/>
<rect x="8" y="20" width="16" height="4" rx="1" fill="#E55E1A"/>
<rect x="26" y="20" width="4" height="4" rx="1" fill="#E55E1A"/>
</svg>
